<svg xmlns="http://www.w3.org/2000/svg" xmlns:xlink="http://www.w3.org/1999/xlink" version="1.1" width="256" height="256" viewBox="0 0 256 256" xml:space="preserve">

<defs>
</defs>
<g style="stroke: none; stroke-width: 0; stroke-dasharray: none; stroke-linecap: butt; stroke-linejoin: miter; stroke-miterlimit: 10; fill: none; fill-rule: nonzero; opacity: 1;" transform="translate(1.4065934065934016 1.4065934065934016) scale(2.81 2.81)" >
	<path d="M 45 0 C 20.187 0 0 20.187 0 45 c 0 24.813 20.187 45 45 45 c 24.813 0 45 -20.187 45 -45 C 90 20.187 69.813 0 45 0 z M 45 88 C 21.29 88 2 68.71 2 45 C 2 21.29 21.29 2 45 2 c 23.71 0 43 19.29 43 43 C 88 68.71 68.71 88 45 88 z" style="stroke: none; stroke-width: 1; stroke-dasharray: none; stroke-linecap: butt; stroke-linejoin: miter; stroke-miterlimit: 10; fill: rgb(0,0,0); fill-rule: nonzero; opacity: 1;" transform=" matrix(1 0 0 1 0 0) " stroke-linecap="round" />
	<path d="M 71.858 59.397 c -0.485 -0.264 -1.093 -0.083 -1.355 0.402 C 65.418 69.176 55.646 75 45 75 c -10.646 0 -20.418 -5.824 -25.503 -15.2 c -0.263 -0.486 -0.872 -0.665 -1.355 -0.402 c -0.486 0.263 -0.666 0.87 -0.402 1.355 C 23.174 70.774 33.62 77 45 77 c 11.381 0 21.826 -6.226 27.261 -16.247 C 72.524 60.268 72.344 59.66 71.858 59.397 z" style="stroke: none; stroke-width: 1; stroke-dasharray: none; stroke-linecap: butt; stroke-linejoin: miter; stroke-miterlimit: 10; fill: rgb(0,0,0); fill-rule: nonzero; opacity: 1;" transform=" matrix(1 0 0 1 0 0) " stroke-linecap="round" />
	<path d="M 18.861 53 c 0.552 0 1 -0.447 1 -1 v -5 h 2.479 c 0.552 0 1 -0.447 1 -1 c 0 -0.552 -0.448 -1 -1 -1 h -2.479 v -4 h 4.32 c 0.552 0 1 -0.448 1 -1 s -0.448 -1 -1 -1 h -5.32 c -0.552 0 -1 0.448 -1 1 v 12 C 17.861 52.553 18.309 53 18.861 53 z" style="stroke: none; stroke-width: 1; stroke-dasharray: none; stroke-linecap: butt; stroke-linejoin: miter; stroke-miterlimit: 10; fill: rgb(0,0,0); fill-rule: nonzero; opacity: 1;" transform=" matrix(1 0 0 1 0 0) " stroke-linecap="round" />
	<path d="M 35.981 42.294 c 0 -1.816 -1.478 -3.294 -3.294 -3.294 h -4.13 c -0.552 0 -1 0.448 -1 1 v 6 v 6 c 0 0.553 0.448 1 1 1 s 1 -0.447 1 -1 v -5 h 3.13 c 0.714 0 1.294 0.58 1.294 1.294 V 52 c 0 0.553 0.448 1 1 1 s 1 -0.447 1 -1 v -3.706 c 0 -0.892 -0.36 -1.7 -0.938 -2.294 c 0.578 -0.594 0.938 -1.402 0.938 -2.294 V 42.294 z M 29.556 45 v -4 h 3.13 c 0.714 0 1.294 0.581 1.294 1.294 v 1.411 c 0 0.714 -0.581 1.294 -1.294 1.294 H 29.556 z" style="stroke: none; stroke-width: 1; stroke-dasharray: none; stroke-linecap: butt; stroke-linejoin: miter; stroke-miterlimit: 10; fill: rgb(0,0,0); fill-rule: nonzero; opacity: 1;" transform=" matrix(1 0 0 1 0 0) " stroke-linecap="round" />
	<path d="M 47.103 41 c 0.553 0 1 -0.448 1 -1 s -0.447 -1 -1 -1 h -6.069 c -0.552 0 -1 0.448 -1 1 v 12 c 0 0.553 0.448 1 1 1 h 6.069 c 0.553 0 1 -0.447 1 -1 s -0.447 -1 -1 -1 h -5.069 v -4 h 3.229 c 0.552 0 1 -0.447 1 -1 c 0 -0.552 -0.448 -1 -1 -1 h -3.229 v -4 H 47.103 z" style="stroke: none; stroke-width: 1; stroke-dasharray: none; stroke-linecap: butt; stroke-linejoin: miter; stroke-miterlimit: 10; fill: rgb(0,0,0); fill-rule: nonzero; opacity: 1;" transform=" matrix(1 0 0 1 0 0) " stroke-linecap="round" />
	<path d="M 55.684 51 H 54.57 c -0.785 0 -1.424 -0.597 -1.424 -1.331 c 0 -0.553 -0.447 -1 -1 -1 s -1 0.447 -1 1 c 0 1.837 1.536 3.331 3.424 3.331 h 1.113 c 1.959 0 3.553 -1.55 3.553 -3.455 v -1.09 c 0 -1.905 -1.594 -3.455 -3.553 -3.455 h -0.984 c -0.856 0 -1.553 -0.653 -1.553 -1.455 v -1.09 c 0 -0.802 0.696 -1.455 1.553 -1.455 h 1.112 c 0.785 0 1.425 0.597 1.425 1.331 c 0 0.552 0.447 1 1 1 s 1 -0.448 1 -1 c 0 -1.837 -1.536 -3.331 -3.425 -3.331 h -1.112 c -1.959 0 -3.553 1.55 -3.553 3.455 v 1.09 c 0 1.905 1.594 3.455 3.553 3.455 h 0.984 c 0.856 0 1.553 0.652 1.553 1.455 v 1.09 C 57.236 50.348 56.54 51 55.684 51 z" style="stroke: none; stroke-width: 1; stroke-dasharray: none; stroke-linecap: butt; stroke-linejoin: miter; stroke-miterlimit: 10; fill: rgb(0,0,0); fill-rule: nonzero; opacity: 1;" transform=" matrix(1 0 0 1 0 0) " stroke-linecap="round" />
	<path d="M 63.862 39 c -0.553 0 -1 0.448 -1 1 v 12 c 0 0.553 0.447 1 1 1 s 1 -0.447 1 -1 v -5 h 5.276 v 5 c 0 0.553 0.447 1 1 1 s 1 -0.447 1 -1 V 40 c 0 -0.552 -0.447 -1 -1 -1 s -1 0.448 -1 1 v 5 h -5.276 v -5 C 64.862 39.448 64.415 39 63.862 39 z" style="stroke: none; stroke-width: 1; stroke-dasharray: none; stroke-linecap: butt; stroke-linejoin: miter; stroke-miterlimit: 10; fill: rgb(0,0,0); fill-rule: nonzero; opacity: 1;" transform=" matrix(1 0 0 1 0 0) " stroke-linecap="round" />
	<path d="M 46.52 15.328 c -0.699 -2.48 -2.313 -4.549 -4.559 -5.832 l 0 0 c -2.27 -1.295 -4.903 -1.631 -7.418 -0.944 c -7.805 2.131 -10.964 8.797 -14.016 16.644 c -0.176 0.457 -0.07 0.98 0.265 1.326 c 0.339 0.356 0.858 0.48 1.319 0.324 c 3.644 -1.236 5.882 -0.596 8.477 0.147 c 1.573 0.45 3.281 0.938 5.351 0.938 c 1.13 0 2.369 -0.146 3.752 -0.523 c 2.514 -0.687 4.613 -2.315 5.909 -4.584 c 0.967 -1.692 1.397 -3.587 1.27 -5.484 c 9.909 0.638 18.847 6.313 23.633 15.137 C 70.684 32.811 71.027 33 71.383 33 c 0.161 0 0.324 -0.039 0.476 -0.121 c 0.485 -0.263 0.666 -0.87 0.402 -1.355 C 67.069 21.95 57.302 15.855 46.52 15.328 z M 43.863 21.832 c -1.031 1.805 -2.7 3.1 -4.699 3.646 c -3.375 0.923 -5.635 0.276 -8.026 -0.408 c -1.587 -0.454 -3.206 -0.917 -5.147 -0.917 c -0.932 0 -1.938 0.106 -3.05 0.372 c 2.691 -6.715 5.665 -12.279 12.129 -14.044 c 2 -0.547 4.095 -0.279 5.9 0.752 c 1.611 0.92 2.811 2.35 3.44 4.068 c -3.316 0.062 -6.571 0.627 -9.68 1.719 c -0.521 0.183 -0.795 0.754 -0.612 1.275 c 0.183 0.521 0.752 0.794 1.275 0.612 c 3.034 -1.066 6.218 -1.609 9.462 -1.625 C 44.998 18.853 44.664 20.43 43.863 21.832 z" style="stroke: none; stroke-width: 1; stroke-dasharray: none; stroke-linecap: butt; stroke-linejoin: miter; stroke-miterlimit: 10; fill: rgb(0,0,0); fill-rule: nonzero; opacity: 1;" transform=" matrix(1 0 0 1 0 0) " stroke-linecap="round" />
</g>
</svg>