<svg fill="none" height="24" viewBox="0 0 24 24" width="24" xmlns="http://www.w3.org/2000/svg"><path clip-rule="evenodd" d="m7.25008 2.38782c1.2987-.28862 2.87422-.38782 4.74992-.38782s3.4512.0992 4.7499.38782c1.3101.29115 2.3989.78818 3.2365 1.62576s1.3346 1.92644 1.6258 3.23649c.2886 1.2987.3878 2.87423.3878 4.74993s-.0992 3.4512-.3878 4.7499c-.2912 1.3101-.7882 2.3989-1.6258 3.2365s-1.9264 1.3346-3.2365 1.6258c-1.2987.2886-2.8742.3878-4.7499.3878s-3.45122-.0992-4.74992-.3878c-1.31006-.2912-2.39892-.7882-3.2365-1.6258s-1.3346-1.9264-1.62575-3.2365c-.28863-1.2987-.38783-2.8742-.38783-4.7499s.0992-3.45123.38783-4.74993c.29115-1.31005.78817-2.39891 1.62575-3.23649s1.92644-1.33461 3.2365-1.62576zm3.25652 4.26482c.5133-1.38582 2.4734-1.38581 2.9867 0l.6276 1.69463c.1453.39229.5194.65268.9377.65268h1.4683c1.4345 0 2.1529 1.73435 1.1386 2.74875l-1.5349 1.5348c-.2364.2365-.3391.5754-.2735.9033l.3691 1.8451c.2681 1.3408-1.1929 2.3553-2.3555 1.6356l-1.3444-.8323c-.3225-.1996-.7302-.1996-1.0527 0l-1.3444.8323c-1.16258.7197-2.6236-.2948-2.35545-1.6356l.36904-1.8451c.06557-.3279-.03705-.6668-.27348-.9033l-1.57647-1.5764c-.99899-.999-.29146-2.70715 1.12132-2.70715h1.5271c.41833 0 .79245-.26039.93775-.65268z" fill="#323232" fill-rule="evenodd"/></svg>